<svg width="0" height="0" class="hidden">
  <symbol fill="none" xmlns="http://www.w3.org/2000/svg" viewBox="0 0 24 24" id="volume-icon">
    <path fill-rule="evenodd" clip-rule="evenodd" d="M10.4 1.8C11.5532 0.262376 14 1.07799 14 3.00001V21.1214C14 23.0539 11.5313 23.8627 10.3878 22.3049L6.49356 17H4C2.34315 17 1 15.6569 1 14V10C1 8.34315 2.34315 7 4 7H6.5L10.4 1.8ZM12 3L8.1 8.2C7.72229 8.70361 7.12951 9 6.5 9H4C3.44772 9 3 9.44772 3 10V14C3 14.5523 3.44772 15 4 15H6.49356C7.13031 15 7.72901 15.3032 8.10581 15.8165L12 21.1214V3Z" fill="#fff"></path>
    <path d="M16.2137 4.17445C16.1094 3.56451 16.5773 3 17.1961 3C17.6635 3 18.0648 3.328 18.1464 3.78824C18.4242 5.35347 19 8.96465 19 12C19 15.0353 18.4242 18.6465 18.1464 20.2118C18.0648 20.672 17.6635 21 17.1961 21C16.5773 21 16.1094 20.4355 16.2137 19.8256C16.5074 18.1073 17 14.8074 17 12C17 9.19264 16.5074 5.8927 16.2137 4.17445Z" fill="#fff"></path>
    <path d="M21.41 5C20.7346 5 20.2402 5.69397 20.3966 6.35098C20.6758 7.52413 21 9.4379 21 12C21 14.5621 20.6758 16.4759 20.3966 17.649C20.2402 18.306 20.7346 19 21.41 19C21.7716 19 22.0974 18.7944 22.2101 18.4509C22.5034 17.5569 23 15.5233 23 12C23 8.47672 22.5034 6.44306 22.2101 5.54913C22.0974 5.20556 21.7716 5 21.41 5Z" fill="#fff"></path>
  </symbol>
  <symbol fill="none" xmlns="http://www.w3.org/2000/svg" viewBox="0 0 24 24" id="repeat-icon">
    <path d="M5.00001 4C3.34315 4 2.00001 5.34314 2.00001 7L2 17C2 18.6569 3.34315 20 5 20H8C8.55228 20 9 19.5523 9 19C9 18.4477 8.55228 18 8 18H5C4.44771 18 4 17.5523 4 17V7C4 6.44772 4.44771 6 5 6L19 6C19.5523 6 20 6.44772 20 7L20 17C20 17.5523 19.5523 18 19 18H14.0027L15.2821 16.7161C15.6734 16.3235 15.6734 15.687 15.2821 15.2944C14.8909 14.9019 14.2566 14.9019 13.8654 15.2944L11.5937 17.574L11.5805 17.5873C10.804 18.3724 10.8057 19.6406 11.5859 20.4234L13.8604 22.7058C14.2513 23.0981 14.8852 23.0981 15.2762 22.7058C15.6672 22.3134 15.6672 21.6773 15.2762 21.285L13.9956 20H19C20.6569 20 22 18.6569 22 17L22 7C22 5.34315 20.6569 4 19 4L5.00001 4Z" fill="#aea090"></path>
  </symbol>
  <symbol fill="none" xmlns="http://www.w3.org/2000/svg" viewBox="0 0 24 24" id="shuffle-icon">
    <path d="M17.448 2.03362C17.8385 1.64315 18.4716 1.64302 18.8621 2.0334L21.4146 4.58483C22.1959 5.36584 22.1961 6.63239 21.4149 7.41355L18.8675 9.96094C18.477 10.3515 17.8438 10.3515 17.4533 9.96094C17.0628 9.57042 17.0628 8.93725 17.4533 8.54673L19 7H14.2361C13.8573 7 13.511 7.214 13.3416 7.55279L11.8954 10.4452L10.7699 8.22417L11.5528 6.65836C12.061 5.64201 13.0998 5 14.2361 5H19L17.4479 3.44791C17.0574 3.05738 17.0575 2.42415 17.448 2.03362Z" fill="#aea090"></path>
    <path d="M17.448 14.0336C17.8385 13.6432 18.4716 13.643 18.8621 14.0334L21.4146 16.5848C22.1959 17.3658 22.1961 18.6324 21.4149 19.4136L18.8675 21.9609C18.477 22.3515 17.8438 22.3515 17.4533 21.9609C17.0628 21.5704 17.0628 20.9373 17.4533 20.5467L19 19H14.2361C13.0998 19 12.061 18.358 11.5528 17.3416L6.65836 7.55279C6.48897 7.214 6.1427 7 5.76393 7H3C2.44772 7 2 6.55228 2 6C2 5.44772 2.44772 5 3 5H5.76393C6.90025 5 7.93904 5.64201 8.44721 6.65836L13.3416 16.4472C13.511 16.786 13.8573 17 14.2361 17H19L17.4479 15.4479C17.0574 15.0574 17.0575 14.4241 17.448 14.0336Z" fill="#aea090"></path>
    <path d="M8.12308 13.5178L9.24864 15.7388L8.44721 17.3416C7.93904 18.358 6.90025 19 5.76393 19H3C2.44772 19 2 18.5523 2 18C2 17.4477 2.44772 17 3 17H5.76393C6.1427 17 6.48897 16.786 6.65836 16.4472L8.12308 13.5178Z" fill="#aea090"></path>
  </symbol>
  <symbol fill="none" xmlns="http://www.w3.org/2000/svg" viewBox="0 0 24 24" id="prev-icon">
    <path fill-rule="evenodd" clip-rule="evenodd" d="M18.3956 19.7691C19.0541 20.2687 20 19.799 20 18.9724L20 5.02764C20 4.20106 19.0541 3.73137 18.3956 4.23095L9.20476 11.2033C8.67727 11.6035 8.67727 12.3965 9.20476 12.7967L18.3956 19.7691ZM22 18.9724C22 21.4521 19.1624 22.8612 17.1868 21.3625L7.99598 14.3901C6.41353 13.1896 6.41353 10.8104 7.99599 9.60994L17.1868 2.63757C19.1624 1.13885 22 2.5479 22 5.02764L22 18.9724Z" fill="#aea090"></path>
    <path d="M2 3C2 2.44772 2.44772 2 3 2C3.55228 2 4 2.44772 4 3V21C4 21.5523 3.55228 22 3 22C2.44772 22 2 21.5523 2 21V3Z" fill="#aea090"></path>
  </symbol>
  <symbol fill="none" xmlns="http://www.w3.org/2000/svg" viewBox="0 0 24 24" id="next-icon">
    <path fill-rule="evenodd" clip-rule="evenodd" d="M5.60439 4.23093C4.94586 3.73136 4 4.20105 4 5.02762V18.9724C4 19.799 4.94586 20.2686 5.60439 19.7691L14.7952 12.7967C15.3227 12.3965 15.3227 11.6035 14.7952 11.2033L5.60439 4.23093ZM2 5.02762C2 2.54789 4.83758 1.13883 6.81316 2.63755L16.004 9.60993C17.5865 10.8104 17.5865 13.1896 16.004 14.3901L6.81316 21.3625C4.83758 22.8612 2 21.4521 2 18.9724V5.02762Z" fill="#aea090"></path>
    <path d="M20 3C20 2.44772 20.4477 2 21 2C21.5523 2 22 2.44772 22 3V21C22 21.5523 21.5523 22 21 22C20.4477 22 20 21.5523 20 21V3Z" fill="#aea090"></path>
  </symbol>
  <symbol fill="none" xmlns="http://www.w3.org/2000/svg" viewBox="0 0 24 24" id="pause-icon">
    <path fill-rule="evenodd" clip-rule="evenodd" d="M10 5C10 3.34315 8.65686 2 7 2H5C3.34315 2 2 3.34315 2 5V19C2 20.6569 3.34315 22 5 22H7C8.65686 22 10 20.6569 10 19V5ZM8 5C8 4.44772 7.55229 4 7 4H5C4.44772 4 4 4.44772 4 5V19C4 19.5523 4.44772 20 5 20H7C7.55229 20 8 19.5523 8 19V5Z" fill="#fff"></path>
    <path fill-rule="evenodd" clip-rule="evenodd" d="M22 5C22 3.34315 20.6569 2 19 2H17C15.3431 2 14 3.34315 14 5V19C14 20.6569 15.3431 22 17 22H19C20.6569 22 22 20.6569 22 19V5ZM20 5C20 4.44772 19.5523 4 19 4H17C16.4477 4 16 4.44772 16 5V19C16 19.5523 16.4477 20 17 20H19C19.5523 20 20 19.5523 20 19V5Z" fill="#fff"></path>
  </symbol>
  <symbol fill="none" xmlns="http://www.w3.org/2000/svg" viewBox="0 0 24 24" id="play-icon">
    <path fill-rule="evenodd" clip-rule="evenodd" d="M5.46484 3.92349C4.79896 3.5739 4 4.05683 4 4.80888V19.1911C4 19.9432 4.79896 20.4261 5.46483 20.0765L19.1622 12.8854C19.8758 12.5108 19.8758 11.4892 19.1622 11.1146L5.46484 3.92349ZM2 4.80888C2 2.55271 4.3969 1.10395 6.39451 2.15269L20.0919 9.34382C22.2326 10.4677 22.2325 13.5324 20.0919 14.6562L6.3945 21.8473C4.39689 22.8961 2 21.4473 2 19.1911V4.80888Z" fill="#fff"></path>
  </symbol>
  <symbol fill="none" xmlns="http://www.w3.org/2000/svg" viewBox="0 0 64 64" id="rss-logo">
    <g clip-path="url(#clip0_5701_38384)">
      <circle cx="32" cy="32" r="32" fill="black"></circle>
      <path fill-rule="evenodd" clip-rule="evenodd" d="M13 21.5095V42.5L19.3067 42.4621V33.9474C20.0567 33.9474 20.7616 33.9775 21.4049 34.4267C21.8946 34.8785 22.2838 35.4335 22.546 36.054L25.9202 42.4621H33C31.5957 39.6675 30.4706 36.1327 28.0552 34.0104C27.5455 33.6749 26.9919 33.4158 26.411 33.241C27.1873 33.0779 27.9357 32.7973 28.6319 32.4084C30.3855 31.3375 31.3915 29.3808 31.3436 27.3374C31.3798 26.1328 31.0495 24.9466 30.3988 23.9441C28.9256 21.6883 25.9337 21.4213 23.4663 21.5095H13ZM21.9939 30.0116H19.3313V25.6975H22.1043C23.4807 25.5594 25.1814 26.1754 25.0859 27.8041C25.1499 29.5621 23.3647 29.9127 21.9939 30.0116Z" fill="#FFB749"></path>
      <path d="M39.4768 35.089L33 35.4666C33.1262 37.3671 34.0021 39.16 35.4636 40.5088C36.9117 41.8323 39.5076 42.4941 43.2515 42.4941C46.3564 42.5823 49.9058 41.8146 51.821 39.1569C52.5929 38.0934 53.0033 36.8427 52.9998 35.564C53.0217 33.1848 51.4339 31.2297 49.3044 30.3147C47.2632 29.4766 45.1198 28.8674 42.9204 28.5C42.1107 28.41 41.3327 28.1563 40.6423 27.757C39.9039 27.2597 40.078 26.2272 40.735 25.7596C42.6084 24.5207 45.6299 25.5545 45.8608 27.9032L52.2845 27.5621C52.1703 25.768 51.1844 24.0545 49.6356 22.9583C47.6987 21.8887 45.4532 21.3874 43.1986 21.5212C41.3493 21.4527 39.5037 21.7218 37.7682 22.3128C35.6082 23.1125 33.829 25.064 33.8344 27.4525C33.7931 28.9377 34.5158 30.4088 35.755 31.3621C37.6454 32.6238 39.8325 33.4582 42.139 33.798C43.3833 33.9637 44.5727 34.3795 45.6224 35.0159C46.5878 35.7309 46.5807 37.167 45.5959 37.8903C44.5078 38.6532 42.9034 38.7416 41.6818 38.2468C40.3717 37.716 39.6048 36.4784 39.4768 35.089Z" fill="#FFB749"></path>
    </g>
    <defs>
      <clipPath id="clip0_5701_38384">
        <rect width="64" height="64" fill="white"></rect>
      </clipPath>
    </defs>
  </symbol>
</svg>